<svg xmlns="http://www.w3.org/2000/svg" xmlns:xlink="http://www.w3.org/1999/xlink" width="2000" zoomAndPan="magnify" viewBox="0 0 1500 599.999999" height="800" preserveAspectRatio="xMidYMid meet" version="1.0"><defs><g/><clipPath id="id1"><path d="M 60 177 L 304.5 177 L 304.5 423 L 60 423 Z M 60 177 " clip-rule="nonzero"/></clipPath></defs><g clip-path="url(#id1)"><path fill="#000000" d="M 201.769531 200.550781 C 196.445312 199.464844 190.875 198.921875 185.257812 198.773438 L 185.257812 189.789062 C 223.753906 190.875 257.277344 211.507812 276.253906 242.410156 L 268.464844 246.902344 C 265.457031 242.113281 262.203125 237.621094 258.507812 233.527344 L 249.636719 241.175781 C 236.820312 226.566406 219.367188 216.148438 199.40625 212.347656 Z M 86.324219 332.945312 L 97.660156 329.144531 C 94.507812 320.113281 92.730469 310.289062 92.730469 300.167969 C 92.730469 290.046875 94.359375 280.226562 97.511719 271.191406 L 86.324219 267.390625 C 88.097656 262.058594 90.414062 256.875 93.027344 252.085938 L 85.238281 247.59375 C 76.761719 263.144531 71.878906 281.164062 71.878906 300.167969 C 71.878906 319.175781 76.808594 337.191406 85.238281 352.792969 L 93.027344 348.300781 C 90.414062 343.363281 88.246094 338.277344 86.324219 332.945312 Z M 165.046875 388.039062 C 145.132812 384.089844 127.679688 373.671875 114.816406 359.0625 L 105.941406 366.859375 C 102.246094 362.617188 98.84375 358.125 95.984375 353.335938 L 88.097656 357.976562 C 107.078125 388.730469 140.746094 409.464844 179.242188 410.597656 L 179.242188 401.566406 C 173.671875 401.417969 168.054688 400.726562 162.730469 399.789062 Z M 105.992188 233.476562 L 114.863281 241.128906 C 127.679688 226.515625 145.132812 216.097656 165.09375 212.296875 L 162.777344 200.550781 C 168.101562 199.464844 173.671875 198.921875 179.292969 198.773438 L 179.292969 189.789062 C 140.792969 190.875 107.273438 211.507812 88.296875 242.410156 L 96.082031 246.902344 C 99.042969 242.113281 102.292969 237.574219 105.992188 233.476562 Z M 258.507812 366.859375 L 249.636719 359.0625 C 236.820312 373.671875 219.367188 384.089844 199.40625 388.039062 L 201.722656 399.789062 C 196.398438 400.726562 190.828125 401.417969 185.207031 401.566406 L 185.207031 410.597656 C 223.707031 409.511719 257.375 388.730469 276.351562 357.976562 L 268.417969 353.335938 C 265.605469 358.125 262.203125 362.617188 258.507812 366.859375 Z M 304.5 300.167969 C 304.5 367.800781 249.78125 422.59375 182.25 422.59375 C 114.71875 422.59375 60 367.800781 60 300.167969 C 60 232.539062 114.71875 177.742188 182.25 177.742188 C 249.78125 177.742188 304.5 232.539062 304.5 300.167969 Z M 298.484375 300.167969 C 298.484375 235.945312 246.382812 183.765625 182.25 183.765625 C 118.117188 183.765625 66.015625 235.945312 66.015625 300.167969 C 66.015625 364.394531 118.117188 416.570312 182.25 416.570312 C 246.382812 416.570312 298.484375 364.394531 298.484375 300.167969 Z M 279.261719 247.546875 L 271.472656 252.039062 C 274.085938 256.824219 276.402344 262.007812 278.175781 267.339844 L 266.988281 271.140625 C 270.140625 280.175781 271.769531 290 271.769531 300.117188 C 271.769531 310.238281 269.992188 320.0625 266.839844 329.097656 L 278.175781 332.898438 C 276.253906 338.230469 274.085938 343.265625 271.472656 348.199219 L 279.261719 352.691406 C 287.738281 337.191406 292.621094 319.175781 292.621094 300.167969 C 292.621094 281.164062 287.738281 263.144531 279.261719 247.546875 Z M 189.050781 335.265625 C 197.085938 333.636719 204.039062 329.539062 209.117188 323.667969 L 234.355469 345.78125 C 240.21875 339.066406 244.855469 331.316406 247.710938 322.679688 L 216.066406 311.769531 C 217.296875 308.066406 217.988281 304.265625 217.988281 300.167969 C 217.988281 296.070312 217.296875 292.21875 216.066406 288.566406 L 247.859375 277.65625 C 244.855469 269.070312 240.21875 261.269531 234.355469 254.554688 L 209.117188 276.671875 C 204.085938 270.796875 197.085938 266.550781 189.050781 264.921875 L 195.609375 232.144531 C 191.371094 231.207031 186.882812 230.761719 182.25 230.761719 C 177.617188 230.761719 173.128906 231.15625 168.890625 232.144531 L 175.449219 264.921875 C 167.414062 266.550781 160.460938 270.796875 155.382812 276.671875 L 130.144531 254.554688 C 124.28125 261.269531 119.644531 269.019531 116.640625 277.65625 L 148.433594 288.566406 C 147.203125 292.269531 146.511719 296.070312 146.511719 300.167969 C 146.511719 304.265625 147.203125 308.117188 148.433594 311.769531 L 116.789062 322.679688 C 119.644531 331.269531 124.28125 339.066406 130.144531 345.78125 L 155.382812 323.667969 C 160.414062 329.539062 167.414062 333.636719 175.449219 335.265625 L 168.890625 368.195312 C 173.128906 369.03125 177.617188 369.574219 182.25 369.574219 C 186.882812 369.574219 191.371094 369.03125 195.609375 368.195312 Z M 189.050781 335.265625 " fill-opacity="1" fill-rule="nonzero"/></g><g fill="#000000" fill-opacity="1"><g transform="translate(338.520164, 337.861971)"><g><path d="M 22.8125 -76.484375 L 22.8125 0 L 6.640625 0 L 6.640625 -76.484375 Z M 22.8125 -76.484375 "/></g></g></g><g fill="#000000" fill-opacity="1"><g transform="translate(368.020526, 337.861971)"><g><path d="M 6.640625 -76.484375 L 26.59375 -76.484375 L 47.65625 -25.09375 L 48.546875 -25.09375 L 69.609375 -76.484375 L 89.546875 -76.484375 L 89.546875 0 L 73.859375 0 L 73.859375 -49.78125 L 73.234375 -49.78125 L 53.4375 -0.375 L 42.75 -0.375 L 22.96875 -49.96875 L 22.328125 -49.96875 L 22.328125 0 L 6.640625 0 Z M 6.640625 -76.484375 "/></g></g></g><g fill="#000000" fill-opacity="1"><g transform="translate(465.185011, 337.861971)"><g><path d="M 6.640625 0 L 6.640625 -76.484375 L 36.8125 -76.484375 C 42.613281 -76.484375 47.554688 -75.378906 51.640625 -73.171875 C 55.722656 -70.972656 58.84375 -67.921875 61 -64.015625 C 63.15625 -60.117188 64.234375 -55.632812 64.234375 -50.5625 C 64.234375 -45.476562 63.132812 -41 60.9375 -37.125 C 58.75 -33.257812 55.582031 -30.238281 51.4375 -28.0625 C 47.289062 -25.882812 42.28125 -24.796875 36.40625 -24.796875 L 22.8125 -24.796875 L 22.8125 0 Z M 22.8125 -37.75 L 33.796875 -37.75 C 38.421875 -37.75 41.875 -38.9375 44.15625 -41.3125 C 46.4375 -43.695312 47.578125 -46.78125 47.578125 -50.5625 C 47.578125 -54.375 46.4375 -57.441406 44.15625 -59.765625 C 41.875 -62.097656 38.394531 -63.265625 33.71875 -63.265625 L 22.8125 -63.265625 Z M 22.8125 -37.75 "/></g></g></g><g fill="#000000" fill-opacity="1"><g transform="translate(533.297247, 337.861971)"><g><path d="M 6.640625 0 L 6.640625 -76.484375 L 58.171875 -76.484375 L 58.171875 -63.140625 L 22.8125 -63.140625 L 22.8125 -44.921875 L 55.53125 -44.921875 L 55.53125 -31.59375 L 22.8125 -31.59375 L 22.8125 -13.328125 L 58.328125 -13.328125 L 58.328125 0 Z M 6.640625 0 "/></g></g></g><g fill="#000000" fill-opacity="1"><g transform="translate(597.71259, 337.861971)"><g><path d="M 6.640625 0 L 6.640625 -76.484375 L 36.8125 -76.484375 C 45.507812 -76.484375 52.253906 -74.21875 57.046875 -69.6875 C 61.835938 -65.15625 64.234375 -59.09375 64.234375 -51.5 C 64.234375 -46.269531 63.066406 -41.800781 60.734375 -38.09375 C 58.410156 -34.382812 55.066406 -31.59375 50.703125 -29.71875 L 66.953125 0 L 49.109375 0 L 34.609375 -27.109375 L 22.8125 -27.109375 L 22.8125 0 Z M 22.8125 -40.109375 L 33.796875 -40.109375 C 42.984375 -40.109375 47.578125 -43.90625 47.578125 -51.5 C 47.578125 -59.34375 42.957031 -63.265625 33.71875 -63.265625 L 22.8125 -63.265625 Z M 22.8125 -40.109375 "/></g></g></g><g fill="#000000" fill-opacity="1"><g transform="translate(666.721026, 337.861971)"><g><path d="M 22.8125 -76.484375 L 22.8125 0 L 6.640625 0 L 6.640625 -76.484375 Z M 22.8125 -76.484375 "/></g></g></g><g fill="#000000" fill-opacity="1"><g transform="translate(696.221388, 337.861971)"><g><path d="M 76.921875 -38.234375 C 76.921875 -29.898438 75.347656 -22.804688 72.203125 -16.953125 C 69.054688 -11.097656 64.78125 -6.632812 59.375 -3.5625 C 53.96875 -0.488281 47.878906 1.046875 41.109375 1.046875 C 34.316406 1.046875 28.21875 -0.492188 22.8125 -3.578125 C 17.414062 -6.671875 13.144531 -11.144531 10 -17 C 6.863281 -22.863281 5.296875 -29.941406 5.296875 -38.234375 C 5.296875 -46.578125 6.863281 -53.671875 10 -59.515625 C 13.144531 -65.367188 17.414062 -69.832031 22.8125 -72.90625 C 28.21875 -75.976562 34.316406 -77.515625 41.109375 -77.515625 C 47.878906 -77.515625 53.96875 -75.976562 59.375 -72.90625 C 64.78125 -69.832031 69.054688 -65.367188 72.203125 -59.515625 C 75.347656 -53.671875 76.921875 -46.578125 76.921875 -38.234375 Z M 60.53125 -38.234375 C 60.53125 -46.347656 58.757812 -52.539062 55.21875 -56.8125 C 51.6875 -61.082031 46.984375 -63.21875 41.109375 -63.21875 C 35.234375 -63.21875 30.53125 -61.082031 27 -56.8125 C 23.46875 -52.539062 21.703125 -46.347656 21.703125 -38.234375 C 21.703125 -30.148438 23.46875 -23.960938 27 -19.671875 C 30.53125 -15.390625 35.234375 -13.25 41.109375 -13.25 C 46.984375 -13.25 51.6875 -15.390625 55.21875 -19.671875 C 58.757812 -23.960938 60.53125 -30.148438 60.53125 -38.234375 Z M 60.53125 -38.234375 "/></g></g></g><g fill="#000000" fill-opacity="1"><g transform="translate(778.448978, 337.861971)"><g/></g></g><g fill="#000000" fill-opacity="1"><g transform="translate(802.833465, 337.861971)"><g><path d="M 57.359375 -51.75 C 56.335938 -55.34375 54.453125 -58.148438 51.703125 -60.171875 C 48.953125 -62.203125 45.5 -63.21875 41.34375 -63.21875 C 35.488281 -63.21875 30.75 -61.054688 27.125 -56.734375 C 23.507812 -52.421875 21.703125 -46.28125 21.703125 -38.3125 C 21.703125 -30.320312 23.476562 -24.144531 27.03125 -19.78125 C 30.59375 -15.425781 35.410156 -13.25 41.484375 -13.25 C 46.859375 -13.25 51.082031 -14.648438 54.15625 -17.453125 C 57.238281 -20.253906 58.828125 -24.019531 58.921875 -28.75 L 42.5 -28.75 L 42.5 -40.921875 L 74.5 -40.921875 L 74.5 -31.296875 C 74.5 -24.597656 73.078125 -18.828125 70.234375 -13.984375 C 67.398438 -9.140625 63.5 -5.421875 58.53125 -2.828125 C 53.5625 -0.242188 47.851562 1.046875 41.40625 1.046875 C 34.238281 1.046875 27.941406 -0.539062 22.515625 -3.71875 C 17.085938 -6.894531 12.859375 -11.410156 9.828125 -17.265625 C 6.804688 -23.128906 5.296875 -30.09375 5.296875 -38.15625 C 5.296875 -46.425781 6.875 -53.5 10.03125 -59.375 C 13.195312 -65.25 17.484375 -69.738281 22.890625 -72.84375 C 28.296875 -75.957031 34.359375 -77.515625 41.078125 -77.515625 C 46.847656 -77.515625 52.070312 -76.421875 56.75 -74.234375 C 61.4375 -72.046875 65.273438 -69.015625 68.265625 -65.140625 C 71.253906 -61.273438 73.09375 -56.8125 73.78125 -51.75 Z M 57.359375 -51.75 "/></g></g></g><g fill="#000000" fill-opacity="1"><g transform="translate(882.820531, 337.861971)"><g><path d="M 19.828125 0 L 2.5 0 L 28.90625 -76.484375 L 49.734375 -76.484375 L 76.109375 0 L 58.78125 0 L 53.09375 -17.4375 L 25.5 -17.4375 Z M 29.609375 -30.0625 L 49.03125 -30.0625 L 39.625 -59 L 39.015625 -59 Z M 33.828125 -83.75 L 41.78125 -100.75 L 56.453125 -100.75 L 45.0625 -83.75 Z M 33.828125 -83.75 "/></g></g></g><g fill="#000000" fill-opacity="1"><g transform="translate(961.463273, 337.861971)"><g><path d="M 6.640625 0 L 6.640625 -76.484375 L 22.8125 -76.484375 L 22.8125 -13.328125 L 55.609375 -13.328125 L 55.609375 0 Z M 6.640625 0 "/></g></g></g><g fill="#000000" fill-opacity="1"><g transform="translate(1021.136183, 337.861971)"><g><path d="M 19.828125 0 L 2.5 0 L 28.90625 -76.484375 L 49.734375 -76.484375 L 76.109375 0 L 58.78125 0 L 53.09375 -17.4375 L 25.5 -17.4375 Z M 29.609375 -30.0625 L 49.03125 -30.0625 L 39.625 -59 L 39.015625 -59 Z M 29.609375 -30.0625 "/></g></g></g><g fill="#000000" fill-opacity="1"><g transform="translate(1099.778925, 337.861971)"><g><path d="M 74.125 -49.703125 L 57.765625 -49.703125 C 57.140625 -53.910156 55.347656 -57.210938 52.390625 -59.609375 C 49.429688 -62.015625 45.734375 -63.21875 41.296875 -63.21875 C 35.367188 -63.21875 30.617188 -61.046875 27.046875 -56.703125 C 23.484375 -52.359375 21.703125 -46.203125 21.703125 -38.234375 C 21.703125 -30.066406 23.5 -23.859375 27.09375 -19.609375 C 30.6875 -15.367188 35.382812 -13.25 41.1875 -13.25 C 45.5 -13.25 49.144531 -14.375 52.125 -16.625 C 55.113281 -18.882812 56.992188 -22.054688 57.765625 -26.140625 L 74.125 -26.0625 C 73.550781 -21.382812 71.878906 -16.976562 69.109375 -12.84375 C 66.347656 -8.707031 62.597656 -5.359375 57.859375 -2.796875 C 53.117188 -0.234375 47.472656 1.046875 40.921875 1.046875 C 34.109375 1.046875 28.015625 -0.492188 22.640625 -3.578125 C 17.273438 -6.671875 13.039062 -11.140625 9.9375 -16.984375 C 6.84375 -22.835938 5.296875 -29.921875 5.296875 -38.234375 C 5.296875 -46.578125 6.863281 -53.671875 10 -59.515625 C 13.144531 -65.367188 17.40625 -69.832031 22.78125 -72.90625 C 28.15625 -75.976562 34.203125 -77.515625 40.921875 -77.515625 C 46.828125 -77.515625 52.148438 -76.425781 56.890625 -74.25 C 61.628906 -72.070312 65.507812 -68.910156 68.53125 -64.765625 C 71.5625 -60.617188 73.425781 -55.597656 74.125 -49.703125 Z M 74.125 -49.703125 "/></g></g></g><g fill="#000000" fill-opacity="1"><g transform="translate(1178.869791, 337.861971)"><g><path d="M 3.734375 -63.140625 L 3.734375 -76.484375 L 66.546875 -76.484375 L 66.546875 -63.140625 L 43.125 -63.140625 L 43.125 0 L 27.140625 0 L 27.140625 -63.140625 Z M 3.734375 -63.140625 "/></g></g></g><g fill="#000000" fill-opacity="1"><g transform="translate(1249.147855, 337.861971)"><g><path d="M 22.8125 -76.484375 L 22.8125 0 L 6.640625 0 L 6.640625 -76.484375 Z M 22.8125 -76.484375 "/></g></g></g><g fill="#000000" fill-opacity="1"><g transform="translate(1278.648265, 337.861971)"><g><path d="M 74.125 -49.703125 L 57.765625 -49.703125 C 57.140625 -53.910156 55.347656 -57.210938 52.390625 -59.609375 C 49.429688 -62.015625 45.734375 -63.21875 41.296875 -63.21875 C 35.367188 -63.21875 30.617188 -61.046875 27.046875 -56.703125 C 23.484375 -52.359375 21.703125 -46.203125 21.703125 -38.234375 C 21.703125 -30.066406 23.5 -23.859375 27.09375 -19.609375 C 30.6875 -15.367188 35.382812 -13.25 41.1875 -13.25 C 45.5 -13.25 49.144531 -14.375 52.125 -16.625 C 55.113281 -18.882812 56.992188 -22.054688 57.765625 -26.140625 L 74.125 -26.0625 C 73.550781 -21.382812 71.878906 -16.976562 69.109375 -12.84375 C 66.347656 -8.707031 62.597656 -5.359375 57.859375 -2.796875 C 53.117188 -0.234375 47.472656 1.046875 40.921875 1.046875 C 34.109375 1.046875 28.015625 -0.492188 22.640625 -3.578125 C 17.273438 -6.671875 13.039062 -11.140625 9.9375 -16.984375 C 6.84375 -22.835938 5.296875 -29.921875 5.296875 -38.234375 C 5.296875 -46.578125 6.863281 -53.671875 10 -59.515625 C 13.144531 -65.367188 17.40625 -69.832031 22.78125 -72.90625 C 28.15625 -75.976562 34.203125 -77.515625 40.921875 -77.515625 C 46.828125 -77.515625 52.148438 -76.425781 56.890625 -74.25 C 61.628906 -72.070312 65.507812 -68.910156 68.53125 -64.765625 C 71.5625 -60.617188 73.425781 -55.597656 74.125 -49.703125 Z M 74.125 -49.703125 "/></g></g></g><g fill="#000000" fill-opacity="1"><g transform="translate(1357.739083, 337.861971)"><g><path d="M 76.921875 -38.234375 C 76.921875 -29.898438 75.347656 -22.804688 72.203125 -16.953125 C 69.054688 -11.097656 64.78125 -6.632812 59.375 -3.5625 C 53.96875 -0.488281 47.878906 1.046875 41.109375 1.046875 C 34.316406 1.046875 28.21875 -0.492188 22.8125 -3.578125 C 17.414062 -6.671875 13.144531 -11.144531 10 -17 C 6.863281 -22.863281 5.296875 -29.941406 5.296875 -38.234375 C 5.296875 -46.578125 6.863281 -53.671875 10 -59.515625 C 13.144531 -65.367188 17.414062 -69.832031 22.8125 -72.90625 C 28.21875 -75.976562 34.316406 -77.515625 41.109375 -77.515625 C 47.878906 -77.515625 53.96875 -75.976562 59.375 -72.90625 C 64.78125 -69.832031 69.054688 -65.367188 72.203125 -59.515625 C 75.347656 -53.671875 76.921875 -46.578125 76.921875 -38.234375 Z M 60.53125 -38.234375 C 60.53125 -46.347656 58.757812 -52.539062 55.21875 -56.8125 C 51.6875 -61.082031 46.984375 -63.21875 41.109375 -63.21875 C 35.234375 -63.21875 30.53125 -61.082031 27 -56.8125 C 23.46875 -52.539062 21.703125 -46.347656 21.703125 -38.234375 C 21.703125 -30.148438 23.46875 -23.960938 27 -19.671875 C 30.53125 -15.390625 35.234375 -13.25 41.109375 -13.25 C 46.984375 -13.25 51.6875 -15.390625 55.21875 -19.671875 C 58.757812 -23.960938 60.53125 -30.148438 60.53125 -38.234375 Z M 60.53125 -38.234375 "/></g></g></g></svg>