<svg xmlns="http://www.w3.org/2000/svg" xmlns:xlink="http://www.w3.org/1999/xlink" width="2000" zoomAndPan="magnify" viewBox="0 0 1500 599.999999" height="800" preserveAspectRatio="xMidYMid meet" version="1.0"><defs><g/><clipPath id="id1"><path d="M 60 177 L 304.5 177 L 304.5 423 L 60 423 Z M 60 177 " clip-rule="nonzero"/></clipPath></defs><g clip-path="url(#id1)"><path fill="#ffffff" d="M 201.769531 200.550781 C 196.445312 199.464844 190.875 198.921875 185.257812 198.773438 L 185.257812 189.789062 C 223.753906 190.875 257.277344 211.507812 276.253906 242.410156 L 268.464844 246.902344 C 265.457031 242.113281 262.203125 237.621094 258.507812 233.527344 L 249.636719 241.175781 C 236.820312 226.566406 219.367188 216.148438 199.40625 212.347656 Z M 86.324219 332.945312 L 97.660156 329.144531 C 94.507812 320.113281 92.730469 310.289062 92.730469 300.167969 C 92.730469 290.046875 94.359375 280.226562 97.511719 271.191406 L 86.324219 267.390625 C 88.097656 262.058594 90.414062 256.875 93.027344 252.085938 L 85.238281 247.59375 C 76.761719 263.144531 71.878906 281.164062 71.878906 300.167969 C 71.878906 319.175781 76.808594 337.191406 85.238281 352.792969 L 93.027344 348.300781 C 90.414062 343.363281 88.246094 338.277344 86.324219 332.945312 Z M 165.046875 388.039062 C 145.132812 384.089844 127.679688 373.671875 114.816406 359.0625 L 105.941406 366.859375 C 102.246094 362.617188 98.84375 358.125 95.984375 353.335938 L 88.097656 357.976562 C 107.078125 388.730469 140.746094 409.464844 179.242188 410.597656 L 179.242188 401.566406 C 173.671875 401.417969 168.054688 400.726562 162.730469 399.789062 Z M 105.992188 233.476562 L 114.863281 241.128906 C 127.679688 226.515625 145.132812 216.097656 165.09375 212.296875 L 162.777344 200.550781 C 168.101562 199.464844 173.671875 198.921875 179.292969 198.773438 L 179.292969 189.789062 C 140.792969 190.875 107.273438 211.507812 88.296875 242.410156 L 96.082031 246.902344 C 99.042969 242.113281 102.292969 237.574219 105.992188 233.476562 Z M 258.507812 366.859375 L 249.636719 359.0625 C 236.820312 373.671875 219.367188 384.089844 199.40625 388.039062 L 201.722656 399.789062 C 196.398438 400.726562 190.828125 401.417969 185.207031 401.566406 L 185.207031 410.597656 C 223.707031 409.511719 257.375 388.730469 276.351562 357.976562 L 268.417969 353.335938 C 265.605469 358.125 262.203125 362.617188 258.507812 366.859375 Z M 304.5 300.167969 C 304.5 367.800781 249.78125 422.59375 182.25 422.59375 C 114.71875 422.59375 60 367.800781 60 300.167969 C 60 232.539062 114.71875 177.742188 182.25 177.742188 C 249.78125 177.742188 304.5 232.539062 304.5 300.167969 Z M 298.484375 300.167969 C 298.484375 235.945312 246.382812 183.765625 182.25 183.765625 C 118.117188 183.765625 66.015625 235.945312 66.015625 300.167969 C 66.015625 364.394531 118.117188 416.570312 182.25 416.570312 C 246.382812 416.570312 298.484375 364.394531 298.484375 300.167969 Z M 279.261719 247.546875 L 271.472656 252.039062 C 274.085938 256.824219 276.402344 262.007812 278.175781 267.339844 L 266.988281 271.140625 C 270.140625 280.175781 271.769531 290 271.769531 300.117188 C 271.769531 310.238281 269.992188 320.0625 266.839844 329.097656 L 278.175781 332.898438 C 276.253906 338.230469 274.085938 343.265625 271.472656 348.199219 L 279.261719 352.691406 C 287.738281 337.191406 292.621094 319.175781 292.621094 300.167969 C 292.621094 281.164062 287.738281 263.144531 279.261719 247.546875 Z M 189.050781 335.265625 C 197.085938 333.636719 204.039062 329.539062 209.117188 323.667969 L 234.355469 345.78125 C 240.21875 339.066406 244.855469 331.316406 247.710938 322.679688 L 216.066406 311.769531 C 217.296875 308.066406 217.988281 304.265625 217.988281 300.167969 C 217.988281 296.070312 217.296875 292.21875 216.066406 288.566406 L 247.859375 277.65625 C 244.855469 269.070312 240.21875 261.269531 234.355469 254.554688 L 209.117188 276.671875 C 204.085938 270.796875 197.085938 266.550781 189.050781 264.921875 L 195.609375 232.144531 C 191.371094 231.207031 186.882812 230.761719 182.25 230.761719 C 177.617188 230.761719 173.128906 231.15625 168.890625 232.144531 L 175.449219 264.921875 C 167.414062 266.550781 160.460938 270.796875 155.382812 276.671875 L 130.144531 254.554688 C 124.28125 261.269531 119.644531 269.019531 116.640625 277.65625 L 148.433594 288.566406 C 147.203125 292.269531 146.511719 296.070312 146.511719 300.167969 C 146.511719 304.265625 147.203125 308.117188 148.433594 311.769531 L 116.789062 322.679688 C 119.644531 331.269531 124.28125 339.066406 130.144531 345.78125 L 155.382812 323.667969 C 160.414062 329.539062 167.414062 333.636719 175.449219 335.265625 L 168.890625 368.195312 C 173.128906 369.03125 177.617188 369.574219 182.25 369.574219 C 186.882812 369.574219 191.371094 369.03125 195.609375 368.195312 Z M 189.050781 335.265625 " fill-opacity="1" fill-rule="nonzero"/></g><g fill="#ffffff" fill-opacity="1"><g transform="translate(338.483775, 338.392431)"><g><path d="M 22.8125 -76.484375 L 22.8125 0 L 6.640625 0 L 6.640625 -76.484375 Z M 22.8125 -76.484375 "/></g></g></g><g fill="#ffffff" fill-opacity="1"><g transform="translate(367.986414, 338.392431)"><g><path d="M 6.640625 -76.484375 L 26.59375 -76.484375 L 47.65625 -25.09375 L 48.546875 -25.09375 L 69.609375 -76.484375 L 89.5625 -76.484375 L 89.5625 0 L 73.875 0 L 73.875 -49.78125 L 73.234375 -49.78125 L 53.4375 -0.375 L 42.765625 -0.375 L 22.96875 -49.96875 L 22.328125 -49.96875 L 22.328125 0 L 6.640625 0 Z M 6.640625 -76.484375 "/></g></g></g><g fill="#ffffff" fill-opacity="1"><g transform="translate(465.158387, 338.392431)"><g><path d="M 6.640625 0 L 6.640625 -76.484375 L 36.828125 -76.484375 C 42.628906 -76.484375 47.570312 -75.378906 51.65625 -73.171875 C 55.738281 -70.972656 58.851562 -67.925781 61 -64.03125 C 63.15625 -60.132812 64.234375 -55.644531 64.234375 -50.5625 C 64.234375 -45.488281 63.140625 -41.015625 60.953125 -37.140625 C 58.765625 -33.265625 55.597656 -30.238281 51.453125 -28.0625 C 47.304688 -25.882812 42.296875 -24.796875 36.421875 -24.796875 L 22.8125 -24.796875 L 22.8125 0 Z M 22.8125 -37.765625 L 33.796875 -37.765625 C 38.429688 -37.765625 41.882812 -38.953125 44.15625 -41.328125 C 46.4375 -43.703125 47.578125 -46.78125 47.578125 -50.5625 C 47.578125 -54.375 46.4375 -57.441406 44.15625 -59.765625 C 41.882812 -62.097656 38.40625 -63.265625 33.71875 -63.265625 L 22.8125 -63.265625 Z M 22.8125 -37.765625 "/></g></g></g><g fill="#ffffff" fill-opacity="1"><g transform="translate(533.275873, 338.392431)"><g><path d="M 6.640625 0 L 6.640625 -76.484375 L 58.1875 -76.484375 L 58.1875 -63.15625 L 22.8125 -63.15625 L 22.8125 -44.921875 L 55.53125 -44.921875 L 55.53125 -31.59375 L 22.8125 -31.59375 L 22.8125 -13.328125 L 58.34375 -13.328125 L 58.34375 0 Z M 6.640625 0 "/></g></g></g><g fill="#ffffff" fill-opacity="1"><g transform="translate(597.696196, 338.392431)"><g><path d="M 6.640625 0 L 6.640625 -76.484375 L 36.828125 -76.484375 C 45.515625 -76.484375 52.253906 -74.21875 57.046875 -69.6875 C 61.835938 -65.15625 64.234375 -59.09375 64.234375 -51.5 C 64.234375 -46.269531 63.066406 -41.800781 60.734375 -38.09375 C 58.410156 -34.382812 55.070312 -31.597656 50.71875 -29.734375 L 66.96875 0 L 49.109375 0 L 34.625 -27.109375 L 22.8125 -27.109375 L 22.8125 0 Z M 22.8125 -40.109375 L 33.796875 -40.109375 C 42.984375 -40.109375 47.578125 -43.90625 47.578125 -51.5 C 47.578125 -59.34375 42.957031 -63.265625 33.71875 -63.265625 L 22.8125 -63.265625 Z M 22.8125 -40.109375 "/></g></g></g><g fill="#ffffff" fill-opacity="1"><g transform="translate(666.709972, 338.392431)"><g><path d="M 22.8125 -76.484375 L 22.8125 0 L 6.640625 0 L 6.640625 -76.484375 Z M 22.8125 -76.484375 "/></g></g></g><g fill="#ffffff" fill-opacity="1"><g transform="translate(696.212611, 338.392431)"><g><path d="M 76.9375 -38.25 C 76.9375 -29.90625 75.359375 -22.804688 72.203125 -16.953125 C 69.054688 -11.097656 64.78125 -6.632812 59.375 -3.5625 C 53.976562 -0.488281 47.894531 1.046875 41.125 1.046875 C 34.320312 1.046875 28.21875 -0.492188 22.8125 -3.578125 C 17.414062 -6.671875 13.144531 -11.148438 10 -17.015625 C 6.863281 -22.878906 5.296875 -29.957031 5.296875 -38.25 C 5.296875 -46.582031 6.863281 -53.675781 10 -59.53125 C 13.144531 -65.382812 17.414062 -69.847656 22.8125 -72.921875 C 28.21875 -75.992188 34.320312 -77.53125 41.125 -77.53125 C 47.894531 -77.53125 53.976562 -75.992188 59.375 -72.921875 C 64.78125 -69.847656 69.054688 -65.382812 72.203125 -59.53125 C 75.359375 -53.675781 76.9375 -46.582031 76.9375 -38.25 Z M 60.546875 -38.25 C 60.546875 -46.363281 58.773438 -52.554688 55.234375 -56.828125 C 51.703125 -61.097656 47 -63.234375 41.125 -63.234375 C 35.25 -63.234375 30.539062 -61.097656 27 -56.828125 C 23.46875 -52.554688 21.703125 -46.363281 21.703125 -38.25 C 21.703125 -30.15625 23.46875 -23.96875 27 -19.6875 C 30.539062 -15.40625 35.25 -13.265625 41.125 -13.265625 C 47 -13.265625 51.703125 -15.40625 55.234375 -19.6875 C 58.773438 -23.96875 60.546875 -30.15625 60.546875 -38.25 Z M 60.546875 -38.25 "/></g></g></g><g fill="#ffffff" fill-opacity="1"><g transform="translate(778.446555, 338.392431)"><g/></g></g><g fill="#ffffff" fill-opacity="1"><g transform="translate(802.832907, 338.392431)"><g><path d="M 57.359375 -51.765625 C 56.335938 -55.347656 54.453125 -58.15625 51.703125 -60.1875 C 48.953125 -62.21875 45.5 -63.234375 41.34375 -63.234375 C 35.488281 -63.234375 30.75 -61.070312 27.125 -56.75 C 23.507812 -52.425781 21.703125 -46.28125 21.703125 -38.3125 C 21.703125 -30.320312 23.476562 -24.148438 27.03125 -19.796875 C 30.59375 -15.441406 35.414062 -13.265625 41.5 -13.265625 C 46.875 -13.265625 51.097656 -14.660156 54.171875 -17.453125 C 57.242188 -20.253906 58.832031 -24.023438 58.9375 -28.765625 L 42.5 -28.765625 L 42.5 -40.9375 L 74.515625 -40.9375 L 74.515625 -31.296875 C 74.515625 -24.597656 73.09375 -18.828125 70.25 -13.984375 C 67.414062 -9.140625 63.515625 -5.421875 58.546875 -2.828125 C 53.578125 -0.242188 47.867188 1.046875 41.421875 1.046875 C 34.242188 1.046875 27.941406 -0.539062 22.515625 -3.71875 C 17.085938 -6.894531 12.859375 -11.410156 9.828125 -17.265625 C 6.804688 -23.128906 5.296875 -30.097656 5.296875 -38.171875 C 5.296875 -46.429688 6.878906 -53.5 10.046875 -59.375 C 13.210938 -65.257812 17.492188 -69.753906 22.890625 -72.859375 C 28.296875 -75.972656 34.359375 -77.53125 41.078125 -77.53125 C 46.859375 -77.53125 52.085938 -76.4375 56.765625 -74.25 C 61.453125 -72.0625 65.285156 -69.03125 68.265625 -65.15625 C 71.253906 -61.28125 73.097656 -56.816406 73.796875 -51.765625 Z M 57.359375 -51.765625 "/></g></g></g><g fill="#ffffff" fill-opacity="1"><g transform="translate(882.826144, 338.392431)"><g><path d="M 19.828125 0 L 2.5 0 L 28.90625 -76.484375 L 49.75 -76.484375 L 76.109375 0 L 58.78125 0 L 53.109375 -17.4375 L 25.515625 -17.4375 Z M 29.609375 -30.0625 L 49.03125 -30.0625 L 39.625 -59.015625 L 39.03125 -59.015625 Z M 33.828125 -83.765625 L 41.78125 -100.75 L 56.453125 -100.75 L 45.0625 -83.765625 Z M 33.828125 -83.765625 "/></g></g></g><g fill="#ffffff" fill-opacity="1"><g transform="translate(961.474929, 338.392431)"><g><path d="M 6.640625 0 L 6.640625 -76.484375 L 22.8125 -76.484375 L 22.8125 -13.328125 L 55.609375 -13.328125 L 55.609375 0 Z M 6.640625 0 "/></g></g></g><g fill="#ffffff" fill-opacity="1"><g transform="translate(1021.152386, 338.392431)"><g><path d="M 19.828125 0 L 2.5 0 L 28.90625 -76.484375 L 49.75 -76.484375 L 76.109375 0 L 58.78125 0 L 53.109375 -17.4375 L 25.515625 -17.4375 Z M 29.609375 -30.0625 L 49.03125 -30.0625 L 39.625 -59.015625 L 39.03125 -59.015625 Z M 29.609375 -30.0625 "/></g></g></g><g fill="#ffffff" fill-opacity="1"><g transform="translate(1099.801171, 338.392431)"><g><path d="M 74.140625 -49.703125 L 57.78125 -49.703125 C 57.15625 -53.910156 55.359375 -57.21875 52.390625 -59.625 C 49.429688 -62.03125 45.738281 -63.234375 41.3125 -63.234375 C 35.382812 -63.234375 30.632812 -61.0625 27.0625 -56.71875 C 23.488281 -52.375 21.703125 -46.21875 21.703125 -38.25 C 21.703125 -30.082031 23.5 -23.875 27.09375 -19.625 C 30.695312 -15.382812 35.394531 -13.265625 41.1875 -13.265625 C 45.5 -13.265625 49.148438 -14.390625 52.140625 -16.640625 C 55.128906 -18.890625 57.007812 -22.054688 57.78125 -26.140625 L 74.140625 -26.0625 C 73.566406 -21.382812 71.894531 -16.976562 69.125 -12.84375 C 66.363281 -8.707031 62.609375 -5.359375 57.859375 -2.796875 C 53.117188 -0.234375 47.476562 1.046875 40.9375 1.046875 C 34.113281 1.046875 28.019531 -0.492188 22.65625 -3.578125 C 17.289062 -6.671875 13.054688 -11.140625 9.953125 -16.984375 C 6.847656 -22.835938 5.296875 -29.925781 5.296875 -38.25 C 5.296875 -46.582031 6.863281 -53.675781 10 -59.53125 C 13.144531 -65.382812 17.40625 -69.847656 22.78125 -72.921875 C 28.15625 -75.992188 34.207031 -77.53125 40.9375 -77.53125 C 46.832031 -77.53125 52.148438 -76.441406 56.890625 -74.265625 C 61.640625 -72.085938 65.523438 -68.925781 68.546875 -64.78125 C 71.578125 -60.632812 73.441406 -55.609375 74.140625 -49.703125 Z M 74.140625 -49.703125 "/></g></g></g><g fill="#ffffff" fill-opacity="1"><g transform="translate(1178.898106, 338.392431)"><g><path d="M 3.734375 -63.15625 L 3.734375 -76.484375 L 66.546875 -76.484375 L 66.546875 -63.15625 L 43.140625 -63.15625 L 43.140625 0 L 27.15625 0 L 27.15625 -63.15625 Z M 3.734375 -63.15625 "/></g></g></g><g fill="#ffffff" fill-opacity="1"><g transform="translate(1249.181581, 338.392431)"><g><path d="M 22.8125 -76.484375 L 22.8125 0 L 6.640625 0 L 6.640625 -76.484375 Z M 22.8125 -76.484375 "/></g></g></g><g fill="#ffffff" fill-opacity="1"><g transform="translate(1278.684174, 338.392431)"><g><path d="M 74.140625 -49.703125 L 57.78125 -49.703125 C 57.15625 -53.910156 55.359375 -57.21875 52.390625 -59.625 C 49.429688 -62.03125 45.738281 -63.234375 41.3125 -63.234375 C 35.382812 -63.234375 30.632812 -61.0625 27.0625 -56.71875 C 23.488281 -52.375 21.703125 -46.21875 21.703125 -38.25 C 21.703125 -30.082031 23.5 -23.875 27.09375 -19.625 C 30.695312 -15.382812 35.394531 -13.265625 41.1875 -13.265625 C 45.5 -13.265625 49.148438 -14.390625 52.140625 -16.640625 C 55.128906 -18.890625 57.007812 -22.054688 57.78125 -26.140625 L 74.140625 -26.0625 C 73.566406 -21.382812 71.894531 -16.976562 69.125 -12.84375 C 66.363281 -8.707031 62.609375 -5.359375 57.859375 -2.796875 C 53.117188 -0.234375 47.476562 1.046875 40.9375 1.046875 C 34.113281 1.046875 28.019531 -0.492188 22.65625 -3.578125 C 17.289062 -6.671875 13.054688 -11.140625 9.953125 -16.984375 C 6.847656 -22.835938 5.296875 -29.925781 5.296875 -38.25 C 5.296875 -46.582031 6.863281 -53.675781 10 -59.53125 C 13.144531 -65.382812 17.40625 -69.847656 22.78125 -72.921875 C 28.15625 -75.992188 34.207031 -77.53125 40.9375 -77.53125 C 46.832031 -77.53125 52.148438 -76.441406 56.890625 -74.265625 C 61.640625 -72.085938 65.523438 -68.925781 68.546875 -64.78125 C 71.578125 -60.632812 73.441406 -55.609375 74.140625 -49.703125 Z M 74.140625 -49.703125 "/></g></g></g><g fill="#ffffff" fill-opacity="1"><g transform="translate(1357.781155, 338.392431)"><g><path d="M 76.9375 -38.25 C 76.9375 -29.90625 75.359375 -22.804688 72.203125 -16.953125 C 69.054688 -11.097656 64.78125 -6.632812 59.375 -3.5625 C 53.976562 -0.488281 47.894531 1.046875 41.125 1.046875 C 34.320312 1.046875 28.21875 -0.492188 22.8125 -3.578125 C 17.414062 -6.671875 13.144531 -11.148438 10 -17.015625 C 6.863281 -22.878906 5.296875 -29.957031 5.296875 -38.25 C 5.296875 -46.582031 6.863281 -53.675781 10 -59.53125 C 13.144531 -65.382812 17.414062 -69.847656 22.8125 -72.921875 C 28.21875 -75.992188 34.320312 -77.53125 41.125 -77.53125 C 47.894531 -77.53125 53.976562 -75.992188 59.375 -72.921875 C 64.78125 -69.847656 69.054688 -65.382812 72.203125 -59.53125 C 75.359375 -53.675781 76.9375 -46.582031 76.9375 -38.25 Z M 60.546875 -38.25 C 60.546875 -46.363281 58.773438 -52.554688 55.234375 -56.828125 C 51.703125 -61.097656 47 -63.234375 41.125 -63.234375 C 35.25 -63.234375 30.539062 -61.097656 27 -56.828125 C 23.46875 -52.554688 21.703125 -46.363281 21.703125 -38.25 C 21.703125 -30.15625 23.46875 -23.96875 27 -19.6875 C 30.539062 -15.40625 35.25 -13.265625 41.125 -13.265625 C 47 -13.265625 51.703125 -15.40625 55.234375 -19.6875 C 58.773438 -23.96875 60.546875 -30.15625 60.546875 -38.25 Z M 60.546875 -38.25 "/></g></g></g></svg>